<svg width="93" height="43" viewBox="0 0 93 43" fill="none" xmlns="http://www.w3.org/2000/svg">
<path d="M49.4873 16.2096V5.31049H52.838V16.2096C52.838 21.3645 55.7468 23.7947 59.2449 24.6784V27.7346C56.741 27.5505 52.5066 25.5989 51.2178 22.3587C49.8555 26.1513 45.4001 27.845 43.4486 28.1396V25.0098C46.6888 24.1997 49.4873 21.475 49.4873 16.2096ZM61.1227 28.8024V4.9791H64.4366V15.5468H68.4501V18.5293H64.4366V28.8024H61.1227ZM65.2099 38.56H49.4873C47.8303 38.56 47.0939 38.1181 47.0939 36.1666V29.4283H50.4078V35.5775H65.2099V38.56ZM79.716 19.6339H72.9777C71.3208 19.6339 70.5843 19.1921 70.5843 17.2405V5.31049H79.3109V8.29301H73.8982V16.6514H79.716V19.6339ZM90.615 19.6339H82.9931C81.3361 19.6339 80.5997 19.1921 80.5997 17.2405V5.31049H90.0627V8.29301H83.9136V16.6514H90.615V19.6339ZM69.7743 25.2307V22.2482H91.3883V25.2307H69.7743ZM78.9427 29.1706V27.1823H82.2566V29.1706C82.2566 32.8527 86.1597 35.3566 90.836 35.6879V38.6336C86.8225 38.3391 82.6249 36.9399 80.5629 33.6628C78.5745 36.9399 74.3769 38.3391 70.3634 38.6336V35.6879C75.0397 35.3566 78.9427 32.8527 78.9427 29.1706Z" fill="white"/>
<circle cx="30.8334" cy="33.8333" r="6.16667" fill="#EA4242"/>
<circle cx="18.4999" cy="9.16667" r="6.16667" fill="white"/>
<circle cx="30.8332" cy="9.16667" r="6.16667" fill="white"/>
<circle cx="30.8332" cy="21.5" r="6.16667" fill="white"/>
<rect x="24.6665" y="9.16667" width="12.3333" height="12.3333" fill="white"/>
<rect x="18.1318" y="3" width="12.3333" height="12.3333" fill="white"/>
<circle cx="6.16667" cy="21.5" r="6.16667" fill="white"/>
<circle cx="6.16667" cy="33.8334" r="6.16667" fill="white"/>
<circle cx="18.4999" cy="33.8334" r="6.16667" fill="white"/>
<rect x="6.16675" y="27.6667" width="12.3333" height="12.3333" fill="white"/>
<rect y="20.9478" width="12.3333" height="12.3333" fill="white"/>
</svg>
