<svg width="1315" height="294" viewBox="0 0 1315 294" fill="none" xmlns="http://www.w3.org/2000/svg">
<path d="M403.506 2.83821H425.049V79.1088H403.506V2.83821ZM436.976 2.83821H464.176L477.668 45.0536L491.159 2.83821H518.36V79.1088H496.817V42.9864L485.284 79.1088H470.052L458.519 42.9864V79.1088H436.976V2.83821ZM530.478 79.1088V2.83821H569.756C588.034 2.83821 601.417 13.3921 601.417 27.9716C601.417 42.4423 588.034 52.9962 569.756 52.9962H552.021V79.1088H530.478ZM552.021 35.479H569.756C574.869 35.479 578.569 32.3237 578.569 27.9716C578.569 23.5107 574.761 20.3554 569.756 20.3554H552.021V35.479ZM609.105 79.1088V2.83821H648.382C666.661 2.83821 680.044 13.3921 680.044 27.9716C680.044 37.3286 674.495 45.0536 665.573 49.1881L680.044 79.1088H656.325L643.704 52.9962H630.648V79.1088H609.105ZM630.648 35.479H648.382C653.496 35.479 657.195 32.3237 657.195 27.9716C657.195 23.5107 653.387 20.3554 648.382 20.3554H630.648V35.479ZM725.671 1.09737C748.737 1.09737 765.601 17.853 765.601 40.9191C765.601 63.9852 748.737 80.7408 725.671 80.7408C702.713 80.7408 685.958 63.9852 685.958 40.9191C685.958 17.853 702.713 1.09737 725.671 1.09737ZM708.697 40.9191C708.697 53.2138 715.443 61.1564 725.671 61.1564C736.007 61.1564 742.644 53.2138 742.644 40.9191C742.644 28.6244 736.007 20.6818 725.671 20.6818C715.443 20.6818 708.697 28.6244 708.697 40.9191ZM794.105 79.1088L764.837 2.83821H787.794L805.529 49.0793L823.373 2.83821H846.221L817.062 79.1088H794.105ZM852.317 2.83821H914.117V20.3554H873.86V32.2149H909.764V49.7321H873.86V61.5916H914.117V79.1088H852.317V2.83821ZM32.8112 145.732L0.279215 98.8382H26.283L43.5826 123.754L60.8822 98.8382H86.886L54.3541 145.732V175.109H32.8112V145.732ZM122.103 97.0974C145.169 97.0974 162.034 113.853 162.034 136.919C162.034 159.985 145.169 176.741 122.103 176.741C99.1459 176.741 82.3903 159.985 82.3903 136.919C82.3903 113.853 99.1459 97.0974 122.103 97.0974ZM105.13 136.919C105.13 149.214 111.876 157.156 122.103 157.156C132.439 157.156 139.076 149.214 139.076 136.919C139.076 124.624 132.439 116.682 122.103 116.682C111.876 116.682 105.13 124.624 105.13 136.919ZM169.667 98.8382H191.21V142.142C191.21 150.846 196.541 157.156 203.831 157.156C211.121 157.156 216.452 150.846 216.452 142.142V98.8382H237.995V142.142C237.995 162.161 223.633 176.85 203.831 176.85C184.029 176.85 169.667 162.161 169.667 142.142V98.8382ZM248.749 175.109V98.8382H288.027C306.306 98.8382 319.689 109.392 319.689 123.972C319.689 133.329 314.14 141.054 305.218 145.188L319.689 175.109H295.97L283.349 148.996H270.292V175.109H248.749ZM270.292 131.479H288.027C293.141 131.479 296.84 128.324 296.84 123.972C296.84 119.511 293.032 116.355 288.027 116.355H270.292V131.479ZM370.09 175.109V98.8382H409.367C427.646 98.8382 441.029 109.392 441.029 123.972C441.029 133.329 435.48 141.054 426.558 145.188L441.029 175.109H417.31L404.689 148.996H391.633V175.109H370.09ZM391.633 131.479H409.367C414.481 131.479 418.18 128.324 418.18 123.972C418.18 119.511 414.372 116.355 409.367 116.355H391.633V131.479ZM450.098 98.8382H511.898V116.355H471.641V128.215H507.546V145.732H471.641V157.592H511.898V175.109H450.098V98.8382ZM546.289 98.8382H569.246L599.167 175.109H576.209L570.66 160.856H544.874L539.325 175.109H516.368L546.289 98.8382ZM551.729 143.447H563.806L557.822 128.106L551.729 143.447ZM637.538 98.8382C660.496 98.8382 677.251 113.853 677.251 136.919C677.251 159.985 660.496 175 637.538 175H605.333V98.8382H637.538ZM637.538 157.592C647.766 157.592 654.512 149.214 654.512 136.919C654.512 124.624 647.766 116.247 637.538 116.247H626.876V157.592H637.538ZM686.085 98.8382H707.628V175.109H686.085V98.8382ZM719.554 98.8382H741.097L767.427 141.815V98.8382H788.97V175.109H767.427L741.097 132.132V175.109H719.554V98.8382ZM797.788 136.919C797.788 113.853 814.544 97.0974 837.501 97.0974C850.231 97.0974 861.547 102.537 868.075 110.698L858.5 124.951C852.842 119.946 847.838 116.682 839.677 116.682C828.035 116.682 820.528 124.624 820.528 136.919C820.528 149.214 828.035 157.156 839.677 157.156C842.18 157.156 844.465 156.83 846.532 156.395V145.732H834.128V128.215H868.075V163.141C861.438 171.41 850.231 176.741 837.501 176.741C814.544 176.741 797.788 159.985 797.788 136.919ZM951.823 97.2062V97.0974C965.314 97.0974 978.153 103.082 984.137 109.61L974.454 123.972C969.449 119.62 961.398 116.791 953.89 116.791C946.383 116.791 941.596 118.64 941.596 121.469C941.596 130.5 986.966 122.231 986.966 150.846C986.966 166.622 973.366 176.85 952.041 176.85C937.135 176.85 923.099 170.43 916.462 163.249L926.037 148.996C932.021 154.001 941.378 157.265 949.865 157.265C958.678 157.265 964.335 155.089 964.335 151.825C964.335 142.794 918.965 151.281 918.965 120.49C918.965 106.346 931.912 97.2062 951.823 97.2062ZM995.811 98.8382H1017.24V129.303L1039.66 98.8382H1065.12L1037.7 136.157L1068.38 175.109H1042.92L1017.35 142.577V175.109H995.811V98.8382ZM1074.44 98.8382H1095.98V175.109H1074.44V98.8382ZM1107.91 175.109V98.8382H1129.45V157.592H1169.71V175.109H1107.91ZM1176.55 175.109V98.8382H1198.09V157.592H1238.35V175.109H1176.55ZM1276.96 97.2062V97.0974C1290.45 97.0974 1303.29 103.082 1309.27 109.61L1299.59 123.972C1294.58 119.62 1286.53 116.791 1279.02 116.791C1271.52 116.791 1266.73 118.64 1266.73 121.469C1266.73 130.5 1312.1 122.231 1312.1 150.846C1312.1 166.622 1298.5 176.85 1277.17 176.85C1262.27 176.85 1248.23 170.43 1241.59 163.249L1251.17 148.996C1257.15 154.001 1266.51 157.265 1275 157.265C1283.81 157.265 1289.47 155.089 1289.47 151.825C1289.47 142.794 1244.1 151.281 1244.1 120.49C1244.1 106.346 1257.04 97.2062 1276.96 97.2062Z" fill="#FF4D4D"/>
<path d="M336.15 245.619V235.952H329.764V236.128C329.061 240.522 326.074 245.033 319.863 245.033C313.653 245.033 310.665 240.522 309.962 236.128C309.435 232.789 309.435 222.888 309.962 219.548C310.665 215.154 313.653 210.643 319.863 210.643C325.781 210.643 328.769 214.744 329.647 218.904H336.15V211.815H341.423V245.619H336.15ZM333.983 265.831C329.999 266.476 324.902 266.358 321.035 265.831C314.591 264.952 312.306 261.32 312.306 256.75C312.306 252.122 314.708 248.665 321.152 247.787C324.96 247.259 329.94 247.259 333.865 247.787C340.31 248.665 342.712 252.122 342.712 256.75C342.712 261.32 340.427 264.777 333.983 265.831ZM319.863 240.581C322.558 240.581 324.023 238.882 324.55 235.191C324.843 232.906 324.902 222.77 324.55 220.486C323.964 216.795 322.558 215.096 319.863 215.096C317.168 215.096 315.762 216.795 315.177 220.486C314.825 222.77 314.884 232.906 315.177 235.191C315.704 238.882 317.168 240.581 319.863 240.581ZM333.221 252.532C329.823 252.005 325.253 251.829 321.797 252.532C318.34 253.235 317.461 254.817 317.461 256.75C317.461 259.094 318.223 260.383 321.797 261.086C325.371 261.789 329.94 261.847 333.221 261.144C336.736 260.383 337.556 259.094 337.556 256.75C337.556 254.817 336.736 253.059 333.221 252.532ZM330.057 223.649C330.175 225.993 330.175 228.805 330.116 231.207H336.15V223.649H330.057ZM358.832 211.17C366.156 211.17 368.206 215.916 368.85 222.36C369.202 226.344 369.436 230.152 369.554 233.96H374.826V211.815H380.099V265.304H374.826V238.706H369.554C369.495 243.51 369.202 248.314 368.792 253.352C368.265 259.504 366.097 264.601 358.832 264.601C351.978 264.601 349.4 259.797 348.873 253.235C347.994 242.397 347.877 232.613 348.931 221.892C349.517 215.916 351.919 211.17 358.832 211.17ZM358.832 215.623C355.727 215.623 354.614 217.908 354.145 222.36C353.149 232.261 353.384 243.158 354.145 253.235C354.38 256.457 355.024 260.09 358.832 260.09C362.699 260.09 363.285 256.282 363.578 253.118C364.457 242.983 364.457 232.086 363.519 222.126C363.226 219.079 362.23 215.623 358.832 215.623ZM397.988 244.916V240.17H412.576V234.312H404.491C401.855 234.312 400.683 233.609 400.683 230.504V212.342H429.508V217.088H405.956V229.566H430.386V234.312H417.849V240.17H432.378V244.916H397.988ZM400.39 253.938V249.193H429.801V265.538H424.528V253.938H400.39ZM455.47 232.613C456.232 238.823 456.232 248.841 455.47 255.52C454.884 260.617 451.838 264.308 446.858 264.308C442.171 264.308 438.949 261.086 438.305 255.52C437.543 248.841 437.602 238.823 438.305 232.613C438.89 227.516 441.937 223.942 446.858 223.942C451.604 223.942 454.826 227.164 455.47 232.613ZM467.539 265.245V238.647H463.79V265.245H458.81V211.815H463.79V233.902H467.539V211.815H472.519V265.245H467.539ZM443.577 233.14C442.874 238.882 442.816 248.665 443.577 255.051C443.87 257.453 444.398 259.738 446.858 259.797C449.553 259.855 449.905 257.395 450.139 255.051C450.783 248.724 450.725 238.882 450.139 233.14C449.905 230.797 449.377 228.395 446.858 228.395C444.28 228.395 443.87 230.855 443.577 233.14ZM436.606 220.954V216.209H444.456V209.53H449.787V216.209H456.994V220.954H436.606ZM512.141 265.245H486.715C484.079 265.245 482.907 264.542 482.907 261.437V253.001H505.814V249.661H482.907V245.209H511.087V257.453H488.18V260.793H512.141V265.245ZM505.814 242.397V211.815H511.087V242.397H505.814ZM486.715 224.528V212.342H492.046V224.528C492.046 232.73 496.675 235.659 502.24 236.772V241.635C498.256 241.342 491.695 239.35 489.469 234.429C487.184 240.112 480.212 242.455 477.107 242.865V237.886C482.262 236.714 486.715 232.906 486.715 224.528ZM539.483 244.389H522.317C519.681 244.389 518.509 243.686 518.509 240.581V226.227H530.988V217.088H518.509V212.342H536.26V230.972H523.782V239.643H539.483V244.389ZM538.018 224.001V219.255H544.462V211.815H549.735V245.97H544.462V235.776H537.725V231.031H544.462V224.001H538.018ZM520.677 253.469V248.724H549.735V265.538H544.462V253.469H520.677ZM593.227 265.831C589.243 266.476 584.146 266.3 580.279 265.831C573.835 265.011 571.55 261.496 571.55 257.16C571.55 252.766 573.952 249.544 580.396 248.665C584.204 248.138 589.184 248.138 593.109 248.665C599.554 249.486 601.956 252.766 601.956 257.16C601.956 261.496 599.671 264.777 593.227 265.831ZM589.594 228.336C590.18 231.851 590.18 234.546 589.594 238.061C589.008 241.635 585.493 245.619 579.81 245.619C574.128 245.619 570.612 241.635 570.027 238.061C569.441 234.546 569.441 231.851 570.027 228.336C570.612 224.762 574.128 220.778 579.81 220.778C585.493 220.778 589.008 224.762 589.594 228.336ZM595.453 246.498V211.815H600.726V220.661H607.111V225.407H600.726V232.554H607.111V237.3H600.726V246.498H595.453ZM592.465 253.235C589.067 252.825 584.497 252.591 581.041 253.235C577.584 253.88 576.705 255.403 576.705 257.16C576.705 259.328 577.467 260.558 581.041 261.203C584.614 261.847 589.184 261.906 592.465 261.261C595.98 260.558 596.8 259.328 596.8 257.16C596.8 255.403 595.98 253.645 592.465 253.235ZM579.81 241.166C583.267 241.166 584.439 238.94 584.732 236.48C584.966 234.136 584.966 232.261 584.732 229.918C584.439 227.457 583.267 225.231 579.81 225.231C576.354 225.231 575.182 227.457 574.889 229.918C574.655 232.261 574.655 234.136 574.889 236.48C575.182 238.94 576.354 241.166 579.81 241.166ZM568.152 219.431V214.686H577.233V209.53H582.564V214.686H591.293V219.431H568.152ZM634.293 265.831C630.309 266.476 625.212 266.358 621.346 265.831C614.901 264.952 612.616 261.32 612.616 256.75C612.616 252.122 615.018 248.665 621.463 247.787C625.271 247.259 630.251 247.259 634.176 247.787C640.62 248.665 643.022 252.122 643.022 256.75C643.022 261.32 640.738 264.777 634.293 265.831ZM618.533 226.871V212.342H623.865V226.871C623.865 235.191 628.493 238.471 634.059 239.292V244.154C629.782 243.686 623.572 241.401 621.287 236.714C619.061 242.455 612.03 244.857 608.925 245.385V240.405C614.081 239.174 618.533 235.249 618.533 226.871ZM637.047 245.619V211.815H642.319V226.871H648.705V231.617H642.319V245.619H637.047ZM633.531 252.532C630.133 252.005 625.564 251.829 622.107 252.532C618.651 253.235 617.772 254.817 617.772 256.75C617.772 259.094 618.533 260.383 622.107 261.086C625.681 261.789 630.251 261.847 633.531 261.144C637.047 260.383 637.867 259.094 637.867 256.75C637.867 254.817 637.047 253.059 633.531 252.532ZM683.152 265.245H657.315C654.679 265.245 653.507 264.542 653.507 261.437V252.239H677.059V248.431H653.507V243.979H682.331V256.692H658.78V260.793H683.152V265.245ZM650.812 240.229V235.484H685.202V240.229H650.812ZM674.305 232.32C670.321 233.023 665.576 232.906 661.709 232.32C655.265 231.324 652.511 226.871 652.511 221.599C652.511 216.209 655.382 212.049 661.826 211.053C665.634 210.467 670.263 210.409 674.188 211.053C680.632 212.108 683.503 216.209 683.503 221.599C683.503 226.871 680.749 231.148 674.305 232.32ZM673.485 215.799C670.145 215.271 665.927 214.92 662.529 215.799C659.131 216.619 657.784 219.021 657.784 221.599C657.784 224.762 658.955 226.813 662.529 227.633C666.044 228.395 670.263 228.453 673.485 227.692C677 226.813 678.23 224.762 678.23 221.599C678.23 219.021 676.941 216.326 673.485 215.799ZM724.885 218.084C725.823 221.716 725.823 229.273 724.885 233.023C724.007 236.538 721.136 240.522 714.633 240.522C708.13 240.522 705.259 236.538 704.38 233.023C703.443 229.391 703.443 221.892 704.38 218.084C705.259 214.568 708.13 210.584 714.633 210.584C721.136 210.584 724.007 214.568 724.885 218.084ZM730.217 265.304V211.815H735.489V265.304H730.217ZM701.275 249.31V244.564H727.522V249.31H717.211V264.366H711.938V249.31H701.275ZM714.633 236.011C718.031 236.011 719.261 234.195 719.73 231.617C720.316 228.453 720.316 222.595 719.73 219.49C719.261 216.912 718.031 215.096 714.633 215.096C711.235 215.096 710.004 216.912 709.536 219.49C708.95 222.653 708.95 228.512 709.536 231.617C710.004 234.195 711.235 236.011 714.633 236.011ZM763.636 230.387C764.222 234.077 764.222 237.007 763.636 240.698C763.05 244.564 759.535 248.841 753.852 248.841C748.169 248.841 744.654 244.564 744.068 240.698C743.482 237.007 743.482 234.077 744.068 230.387C744.654 226.52 748.169 222.243 753.852 222.243C759.535 222.243 763.05 226.52 763.636 230.387ZM769.494 249.72V211.815H774.767V230.035H781.153V234.781H774.767V249.72H769.494ZM775.412 265.245H750.395C747.759 265.245 746.587 264.542 746.587 261.437V251.302H751.86V260.5H775.412V265.245ZM753.852 244.33C757.309 244.33 758.48 241.869 758.773 239.174C759.008 236.538 759.008 234.546 758.773 231.91C758.48 229.215 757.309 226.754 753.852 226.754C750.395 226.754 749.224 229.215 748.931 231.91C748.696 234.546 748.696 236.538 748.931 239.174C749.224 241.869 750.395 244.33 753.852 244.33ZM742.193 220.31V215.564H751.274V209.53H756.605V215.564H765.335V220.31H742.193ZM818.716 244.389H800.085C797.449 244.389 796.277 243.686 796.277 240.581V212.342H816.958V217.088H801.55V226.051H816.665V230.797H801.55V239.643H818.716V244.389ZM821.645 245.97V211.815H826.918V227.047H833.304V231.793H826.918V245.97H821.645ZM797.859 253.469V248.724H826.918V265.538H821.645V253.469H797.859ZM870.765 265.187H844.46C841.824 265.187 840.652 264.484 840.652 261.379V253.118H864.438V250.247H840.652V245.795H869.711V257.57H845.925V260.734H870.765V265.187ZM858.052 217.732C858.404 220.368 858.404 222.009 858.052 224.645C857.642 227.574 855.006 232.086 848.151 232.086C841.297 232.086 838.66 227.574 838.25 224.645C837.899 222.009 837.899 220.368 838.25 217.732C838.66 214.803 841.297 210.292 848.151 210.292C855.006 210.292 857.642 214.803 858.052 217.732ZM859.048 229.859V225.114H864.438V211.815H869.711V243.861H864.438V229.859H859.048ZM835.731 238.471V234.019H862.563V238.471H850.495V243.861H845.222V238.471H835.731ZM848.151 227.75C850.612 227.75 852.545 226.461 852.897 223.415C853.072 221.892 853.072 220.486 852.897 218.962C852.545 215.916 850.612 214.627 848.151 214.627C845.691 214.627 843.757 215.916 843.406 218.962C843.23 220.486 843.23 221.892 843.406 223.415C843.757 226.461 845.691 227.75 848.151 227.75ZM897.857 230.387C898.443 234.077 898.443 237.007 897.857 240.698C897.271 244.564 893.756 248.841 888.073 248.841C882.391 248.841 878.875 244.564 878.29 240.698C877.704 237.007 877.704 234.077 878.29 230.387C878.875 226.52 882.391 222.243 888.073 222.243C893.756 222.243 897.271 226.52 897.857 230.387ZM903.716 249.72V211.815H908.989V230.035H915.374V234.781H908.989V249.72H903.716ZM909.633 265.245H884.617C881.98 265.245 880.809 264.542 880.809 261.437V251.302H886.081V260.5H909.633V265.245ZM888.073 244.33C891.53 244.33 892.702 241.869 892.995 239.174C893.229 236.538 893.229 234.546 892.995 231.91C892.702 229.215 891.53 226.754 888.073 226.754C884.617 226.754 883.445 229.215 883.152 231.91C882.918 234.546 882.918 236.538 883.152 239.174C883.445 241.869 884.617 244.33 888.073 244.33ZM876.415 220.31V215.564H885.496V209.53H890.827V215.564H899.556V220.31H876.415ZM937.939 229.684V212.342H943.271V229.684C943.271 237.944 947.899 241.752 953.464 243.158V248.021C949.481 247.611 942.86 244.799 940.751 239.585C938.466 245.619 932.022 248.197 928.917 248.665V243.686C934.073 242.397 937.939 237.944 937.939 229.684ZM949.656 231.031V226.286H957.624V211.815H962.897V249.72H957.624V231.031H949.656ZM963.541 265.245H938.525C935.889 265.245 934.717 264.542 934.717 261.437V250.716H939.99V260.5H963.541V265.245ZM998.44 245.912V231.148H994.163V245.912H989.184V211.815H994.163V226.403H998.44V211.815H1003.42V245.912H998.44ZM987.778 244.389H973.776C971.139 244.389 969.967 243.686 969.967 240.581V212.342H986.489V217.088H975.24V226.051H986.196V230.797H975.24V239.643H987.778V244.389ZM973.19 253.469V248.724H1003.42V265.538H998.147V253.469H973.19Z" fill="#FF4D4D"/>

</svg>
