<svg width="174" height="76" viewBox="0 0 174 76" fill="none" xmlns="http://www.w3.org/2000/svg">
<ellipse cx="57.5" cy="62.7253" rx="11.5" ry="11.2747" fill="#4D5FFF"/>
<ellipse cx="34.5" cy="16.2747" rx="11.5" ry="11.2747" fill="white"/>
<ellipse cx="57.5" cy="16.2747" rx="11.5" ry="11.2747" fill="white"/>
<ellipse cx="57.5" cy="36.9194" rx="11.5" ry="11.2747" fill="white"/>
<rect x="46" y="15.3223" width="23" height="22.5495" fill="white"/>
<rect x="33.8135" y="5" width="23" height="22.5495" fill="white"/>
<ellipse cx="11.5" cy="36.9194" rx="11.5" ry="11.2747" fill="white"/>
<ellipse cx="11.5" cy="62.7252" rx="11.5" ry="11.2747" fill="white"/>
<ellipse cx="34.5" cy="62.7252" rx="11.5" ry="11.2747" fill="white"/>
<rect x="11.5" y="51.4505" width="23" height="22.5495" fill="white"/>
<rect y="35.967" width="23" height="27" fill="white"/>
<path d="M96.7429 28.1884V8.83699H102.692V28.1884C102.692 37.3411 107.857 41.6559 114.068 43.2249V48.6512C109.622 48.3243 102.104 44.8594 99.8156 39.1062C97.3967 45.84 89.4861 48.8473 86.0212 49.3703V43.8133C91.7743 42.3751 96.7429 37.5372 96.7429 28.1884ZM117.402 50.5471V8.2486H123.286V27.0116H130.412V32.3071H123.286V50.5471H117.402ZM124.659 67.8718H96.7429C93.801 67.8718 92.4934 67.0873 92.4934 63.6224V51.6585H98.3773V62.5763H124.659V67.8718ZM150.414 34.2684H138.45C135.509 34.2684 134.201 33.4839 134.201 30.0189V8.83699H149.695V14.1325H140.085V28.9729H150.414V34.2684ZM169.766 34.2684H156.233C153.291 34.2684 151.983 33.4839 151.983 30.0189V8.83699H168.785V14.1325H157.867V28.9729H169.766V34.2684ZM132.763 44.2056V38.9101H171.139V44.2056H132.763ZM149.041 51.2009V47.6705H154.925V51.2009C154.925 57.7385 161.855 62.1841 170.158 62.7725V68.0026C163.032 67.4796 155.579 64.9953 151.918 59.1768C148.388 64.9953 140.935 67.4796 133.809 68.0026V62.7725C142.112 62.1841 149.041 57.7385 149.041 51.2009Z" fill="white"/>
</svg>
