<svg width="1413" height="301" viewBox="0 0 1413 301" fill="none" xmlns="http://www.w3.org/2000/svg">
<path d="M50.3756 2.83821H68.872L82.6899 48.4265L96.5079 2.83821H119.03L95.8551 79.1088H73.3329L73.4417 78.8912L59.6238 33.4117L45.8059 78.8912L45.9147 79.1088H23.5014L0.326408 2.83821H22.7397L36.5577 48.4265L50.3756 2.83821ZM145.038 22.9667V22.8579C164.949 22.8579 176.264 35.0438 176.264 57.3483H137.531C139.272 61.0476 142.862 63.4412 148.411 63.4412C153.525 63.4412 156.789 61.4828 159.726 58.9803L170.063 69.9694C165.493 76.8239 155.81 80.8496 146.561 80.8496C128.718 80.8496 116.205 68.6638 116.205 51.9082C116.205 35.1526 128.391 22.9667 145.038 22.9667ZM136.878 46.468H154.177C152.219 42.1159 148.846 40.3751 145.038 40.3751C141.339 40.3751 138.183 42.6599 136.878 46.468ZM184.157 2.83821H203.632V79.1088H184.157V2.83821ZM242.505 22.9667V22.8579C251.753 22.8579 261.436 26.8836 266.006 33.7381L255.67 44.7272C252.732 42.2247 249.468 40.3751 244.354 40.3751C236.956 40.3751 232.168 44.9448 232.168 51.9082C232.168 58.8715 236.956 63.4412 244.354 63.4412C249.468 63.4412 252.732 61.5916 255.67 58.9803L266.006 69.9694C261.436 76.8239 251.753 80.8496 242.505 80.8496C224.661 80.8496 212.149 68.6638 212.149 51.9082C212.149 35.1526 224.661 22.9667 242.505 22.9667ZM300.301 80.7408C282.457 80.7408 270.271 68.555 270.271 51.7994C270.271 35.0438 282.457 22.8579 300.301 22.8579C318.145 22.8579 330.33 35.0438 330.33 51.7994C330.33 68.555 318.145 80.7408 300.301 80.7408ZM290.291 51.7994C290.291 58.8715 294.099 63.3324 300.301 63.3324C306.394 63.3324 310.311 58.8715 310.311 51.7994C310.311 44.836 306.394 40.2663 300.301 40.2663C294.099 40.2663 290.291 44.836 290.291 51.7994ZM338.967 24.5987H358.442V30.8005C361.815 25.7955 366.929 22.8579 373.457 22.8579C381.4 22.8579 387.601 26.666 390.865 32.9765C394.674 26.666 401.202 22.8579 408.492 22.8579C420.677 22.8579 428.511 31.4533 428.511 44.6184V79.1088H408.927V46.9032C408.927 40.8103 405.88 36.7846 401.202 36.7846C396.523 36.7846 393.477 40.8103 393.477 46.9032V79.1088H373.892V46.9032C373.892 40.8103 370.846 36.7846 366.167 36.7846C361.489 36.7846 358.442 40.8103 358.442 46.9032V79.1088H338.967V24.5987ZM465.283 22.9667V22.8579C485.194 22.8579 496.509 35.0438 496.509 57.3483H457.776C459.517 61.0476 463.107 63.4412 468.656 63.4412C473.77 63.4412 477.034 61.4828 479.971 58.9803L490.308 69.9694C485.738 76.8239 476.055 80.8496 466.806 80.8496C448.963 80.8496 436.45 68.6638 436.45 51.9082C436.45 35.1526 448.636 22.9667 465.283 22.9667ZM457.123 46.468H474.422C472.464 42.1159 469.091 40.3751 465.283 40.3751C461.584 40.3751 458.428 42.6599 457.123 46.468ZM550.739 56.2603V39.8311H542.144V24.5987H550.739V9.47516H570.323V24.5987H583.597V39.8311H570.323V56.6955C570.323 60.9388 572.935 63.6588 576.634 63.6588C579.463 63.6588 581.53 62.3532 583.053 59.9596L593.39 70.9486C589.69 76.9328 582.074 80.8496 573.914 80.8496C559.878 80.8496 550.739 71.1662 550.739 56.2603ZM626.071 80.7408C608.227 80.7408 596.042 68.555 596.042 51.7994C596.042 35.0438 608.227 22.8579 626.071 22.8579C643.915 22.8579 656.101 35.0438 656.101 51.7994C656.101 68.555 643.915 80.7408 626.071 80.7408ZM616.061 51.7994C616.061 58.8715 619.869 63.3324 626.071 63.3324C632.164 63.3324 636.081 58.8715 636.081 51.7994C636.081 44.836 632.164 40.2663 626.071 40.2663C619.869 40.2663 616.061 44.836 616.061 51.7994ZM10.445 152.26V135.831H1.84964V120.599H10.445V105.475H30.0295V120.599H43.3034V135.831H30.0295V152.695C30.0295 156.939 32.6408 159.659 36.3401 159.659C39.1689 159.659 41.2362 158.353 42.7594 155.96L53.0956 166.949C49.3964 172.933 41.7802 176.85 33.62 176.85C19.5845 176.85 10.445 167.166 10.445 152.26ZM59.5226 98.8382H78.9983V127.127C82.48 121.687 87.9201 118.858 95.1011 118.858C108.484 118.858 116.209 127.236 116.209 141.706V175H96.6243V143.882C96.6243 136.81 93.3602 132.676 87.8113 132.676C82.2624 132.676 78.9983 136.81 78.9983 143.882V175H59.5226V98.8382ZM153.007 118.967V118.858C172.918 118.858 184.233 131.044 184.233 153.348H145.5C147.24 157.048 150.831 159.441 156.38 159.441C161.494 159.441 164.758 157.483 167.695 154.98L178.032 165.969C173.462 172.824 163.778 176.85 154.53 176.85C136.687 176.85 124.174 164.664 124.174 147.908C124.174 131.153 136.36 118.967 153.007 118.967ZM144.847 142.468H162.146C160.188 138.116 156.815 136.375 153.007 136.375C149.308 136.375 146.152 138.66 144.847 142.468ZM265.772 97.2062V97.0974C279.264 97.0974 292.103 103.082 298.087 109.61L288.403 123.972C283.398 119.62 275.347 116.791 267.84 116.791C260.332 116.791 255.545 118.64 255.545 121.469C255.545 130.5 300.916 122.231 300.916 150.846C300.916 166.622 287.315 176.85 265.99 176.85C251.084 176.85 237.048 170.43 230.411 163.249L239.986 148.996C245.97 154.001 255.327 157.265 263.814 157.265C272.627 157.265 278.285 155.089 278.285 151.825C278.285 142.794 232.914 151.281 232.914 120.49C232.914 106.346 245.861 97.2062 265.772 97.2062ZM306.822 158.68C306.822 148.235 315.309 140.618 327.168 140.618C332.282 140.618 337.505 142.033 341.204 144.426C340.334 138.986 336.199 136.375 330.324 136.375C326.407 136.375 322.055 137.028 319.008 140.727L308.672 129.738C313.024 123.972 322.164 118.858 332.065 118.858C349.691 118.858 361.006 127.997 361.006 145.732V175.109H341.422V172.933C337.722 175.326 332.391 176.85 327.168 176.85C315.309 176.85 306.822 169.125 306.822 158.68ZM326.842 158.68C326.842 162.27 329.888 164.881 334.023 164.881C338.266 164.881 341.422 163.032 341.422 160.42V156.939C341.422 154.328 338.266 152.478 334.023 152.478C329.888 152.478 326.842 155.089 326.842 158.68ZM371.055 120.599H390.531V127.127C394.012 121.687 399.452 118.858 406.633 118.858C420.016 118.858 427.741 127.236 427.741 141.706V175H408.157V143.882C408.157 136.81 404.893 132.676 399.344 132.676C393.795 132.676 390.531 136.81 390.531 143.882V175H371.055V120.599ZM494.569 98.8382V175.109H474.984V168.037C471.503 173.477 466.063 176.741 458.773 176.741C445.608 176.741 436.033 164.555 436.033 147.799C436.033 131.044 445.608 118.858 458.773 118.858C465.954 118.858 471.503 122.122 474.984 127.562V98.8382H494.569ZM465.845 162.923V163.032C471.176 163.032 474.984 158.353 474.984 151.825V143.882C474.984 137.354 471.067 132.676 465.845 132.676C460.187 132.676 456.053 139.095 456.053 147.799C456.053 156.504 460.078 162.923 465.845 162.923ZM561.933 98.8382V175.109H542.348V168.037C538.867 173.477 533.427 176.741 526.137 176.741C512.972 176.741 503.397 164.555 503.397 147.799C503.397 131.044 512.972 118.858 526.137 118.858C533.318 118.858 538.867 122.122 542.348 127.562V98.8382H561.933ZM533.209 162.923V163.032C538.54 163.032 542.348 158.353 542.348 151.825V143.882C542.348 137.354 538.432 132.676 533.209 132.676C527.551 132.676 523.417 139.095 523.417 147.799C523.417 156.504 527.442 162.923 533.209 162.923ZM599.267 118.967V118.858C619.178 118.858 630.494 131.044 630.494 153.348H591.76C593.501 157.048 597.091 159.441 602.64 159.441C607.754 159.441 611.018 157.483 613.956 154.98L624.292 165.969C619.722 172.824 610.039 176.85 600.791 176.85C582.947 176.85 570.435 164.664 570.435 147.908C570.435 131.153 582.621 118.967 599.267 118.967ZM591.107 142.468H608.407C606.448 138.116 603.076 136.375 599.267 136.375C595.568 136.375 592.413 138.66 591.107 142.468ZM666.022 176.741C648.178 176.741 635.993 164.555 635.993 147.799C635.993 131.044 648.178 118.858 666.022 118.858C683.866 118.858 696.052 131.044 696.052 147.799C696.052 164.555 683.866 176.741 666.022 176.741ZM656.012 147.799C656.012 154.872 659.82 159.332 666.022 159.332C672.115 159.332 676.032 154.872 676.032 147.799C676.032 140.836 672.115 136.266 666.022 136.266C659.82 136.266 656.012 140.836 656.012 147.799ZM709.693 152.26V135.831H701.097V120.599H709.693V105.475H729.277V120.599H742.551V135.831H729.277V152.695C729.277 156.939 731.888 159.659 735.588 159.659C738.417 159.659 740.484 158.353 742.007 155.96L752.343 166.949C748.644 172.933 741.028 176.85 732.868 176.85C718.832 176.85 709.693 167.166 709.693 152.26ZM800.646 98.8382H862.446V116.355H822.189V128.215H858.094V145.732H822.189V157.592H862.446V175.109H800.646V98.8382ZM932.525 175.109H909.458L899.884 162.705L890.962 175.109H867.896L888.133 147.147L867.896 120.599H890.962L900.428 133.002L909.458 120.599H932.525L912.178 148.67L932.525 175.109ZM939.081 120.599H958.556V127.671C962.147 122.231 967.478 118.967 974.768 118.967C987.933 118.967 997.617 131.153 997.617 147.908C997.617 164.664 987.933 176.85 974.768 176.85C967.587 176.85 962.147 173.586 958.556 168.145V196.869H939.081V120.599ZM967.696 163.032C973.354 163.032 977.597 156.612 977.597 147.908C977.597 139.204 973.462 132.785 967.696 132.785C962.364 132.785 958.556 137.463 958.556 143.991V151.825C958.556 158.353 962.473 163.032 967.696 163.032ZM1032.88 118.967V118.858C1052.79 118.858 1064.11 131.044 1064.11 153.348H1025.38C1027.12 157.048 1030.71 159.441 1036.26 159.441C1041.37 159.441 1044.63 157.483 1047.57 154.98L1057.91 165.969C1053.34 172.824 1043.66 176.85 1034.41 176.85C1016.56 176.85 1004.05 164.664 1004.05 147.908C1004.05 131.153 1016.24 118.967 1032.88 118.967ZM1024.72 142.468H1042.02C1040.06 138.116 1036.69 136.375 1032.88 136.375C1029.18 136.375 1026.03 138.66 1024.72 142.468ZM1072 120.599H1092.57V127.671C1096.05 122.122 1101.71 118.967 1108.78 118.967C1114.54 118.967 1120.85 122.122 1124.66 127.344L1114.33 138.334C1110.95 136.266 1106.49 134.961 1103.01 134.961C1096.7 134.961 1092.68 138.551 1092.68 143.991V175.109H1072V120.599ZM1130.32 107.434C1130.32 101.776 1135 97.0974 1140.55 97.0974C1146.21 97.0974 1150.89 101.776 1150.89 107.434C1150.89 113.091 1146.21 117.77 1140.55 117.77C1135 117.77 1130.32 113.091 1130.32 107.434ZM1130.87 120.599H1150.45V175.109H1130.87V120.599ZM1187.8 118.967V118.858C1207.71 118.858 1219.03 131.044 1219.03 153.348H1180.29C1182.03 157.048 1185.62 159.441 1191.17 159.441C1196.29 159.441 1199.55 157.483 1202.49 154.98L1212.82 165.969C1208.25 172.824 1198.57 176.85 1189.32 176.85C1171.48 176.85 1158.97 164.664 1158.97 147.908C1158.97 131.153 1171.15 118.967 1187.8 118.967ZM1179.64 142.468H1196.94C1194.98 138.116 1191.61 136.375 1187.8 136.375C1184.1 136.375 1180.95 138.66 1179.64 142.468ZM1226.92 120.599H1246.39V127.127C1249.88 121.687 1255.32 118.858 1262.5 118.858C1275.88 118.858 1283.6 127.236 1283.6 141.706V175H1264.02V143.882C1264.02 136.81 1260.76 132.676 1255.21 132.676C1249.66 132.676 1246.39 136.81 1246.39 143.882V175H1226.92V120.599ZM1321.82 118.967V118.858C1331.07 118.858 1340.75 122.884 1345.32 129.738L1334.98 140.727C1332.04 138.225 1328.78 136.375 1323.67 136.375C1316.27 136.375 1311.48 140.945 1311.48 147.908C1311.48 154.872 1316.27 159.441 1323.67 159.441C1328.78 159.441 1332.04 157.592 1334.98 154.98L1345.32 165.969C1340.75 172.824 1331.07 176.85 1321.82 176.85C1303.97 176.85 1291.46 164.664 1291.46 147.908C1291.46 131.153 1303.97 118.967 1321.82 118.967ZM1378.42 118.967V118.858C1398.33 118.858 1409.64 131.044 1409.64 153.348H1370.91C1372.65 157.048 1376.24 159.441 1381.79 159.441C1386.9 159.441 1390.17 157.483 1393.11 154.98L1403.44 165.969C1398.87 172.824 1389.19 176.85 1379.94 176.85C1362.1 176.85 1349.58 164.664 1349.58 147.908C1349.58 131.153 1361.77 118.967 1378.42 118.967ZM1370.26 142.468H1387.56C1385.6 138.116 1382.23 136.375 1378.42 136.375C1374.72 136.375 1371.56 138.66 1370.26 142.468Z" fill="#FF4D4D"/>
<path d="M21.1495 235.762C21.6182 238.222 21.6182 245.252 21.1495 247.772C20.5637 250.994 17.4586 254.45 12.5374 254.45C7.61618 254.45 4.51112 250.994 3.92526 247.772C3.45657 245.252 3.39799 238.339 3.92526 235.762C4.56971 232.539 7.61618 228.907 12.5374 228.907C17.4586 228.907 20.5637 232.539 21.1495 235.762ZM32.9839 254.685V240.273H29.0587V254.685H24.0788V219.416H29.0587V235.527H32.9839V219.416H37.9637V254.685H32.9839ZM7.73335 261.774V257.028H37.9637V273.139H32.691V261.774H7.73335ZM2.05051 227.618V222.873H9.90103V217.131H15.2324V222.873H22.2041V227.618H2.05051ZM12.5374 249.998C15.0566 249.998 16.3455 248.65 16.697 245.78C16.8728 244.315 16.8728 239.335 16.697 237.753C16.4041 234.883 15.0566 233.36 12.5374 233.36C10.0182 233.36 8.67073 234.883 8.3778 237.753C8.20204 239.335 8.20204 244.315 8.3778 245.78C8.72931 248.65 10.0182 249.998 12.5374 249.998ZM52.1598 234.063V219.943H57.4912V234.063C57.4912 242.265 62.1195 245.663 67.6851 246.893V251.756C63.7013 251.287 57.0225 248.826 54.9134 243.905C52.6871 249.646 45.6568 252.166 42.5517 252.693V247.713C47.7073 246.483 52.1598 242.44 52.1598 234.063ZM71.2589 252.048V219.416H76.5316V252.048H71.2589ZM76.5316 272.846H52.1598C49.5235 272.846 48.3517 272.143 48.3517 269.038V255.446H76.5316V272.846ZM71.2589 260.192H53.6245V268.101H71.2589V260.192ZM102.877 220.236V252.693C102.877 261.539 97.3113 271.03 84.481 271.382V266.519C92.683 266.461 97.5457 260.719 97.5457 252.224V224.982H82.782V220.236H102.877ZM108.736 272.905V219.416H114.008V272.905H108.736ZM143.808 273.432C139.824 274.077 134.727 273.96 130.86 273.432C124.416 272.495 122.131 268.57 122.131 263.883C122.131 259.137 124.533 255.388 130.978 254.45C134.786 253.923 139.766 253.923 143.691 254.45C150.135 255.388 152.537 259.137 152.537 263.883C152.537 268.57 150.252 272.319 143.808 273.432ZM143.046 259.255C139.648 258.669 135.079 258.434 131.622 259.255C128.166 259.958 127.287 261.832 127.287 263.883C127.287 266.343 128.048 267.925 131.622 268.628C135.196 269.448 139.766 269.507 143.046 268.687C146.562 267.925 147.382 266.343 147.382 263.883C147.382 261.832 146.562 259.782 143.046 259.255ZM152.01 241.034H126.584C123.947 241.034 122.776 240.331 122.776 237.226V219.943H128.048V236.289H152.01V241.034ZM120.139 249.998V245.252H154.529V249.998H120.139ZM170.778 228.555V223.81H177.867V217.131H183.14V223.81H190.17V228.555H183.14V250.701C183.14 257.966 186.889 265.465 191.049 266.578V271.792C186.948 271.147 182.495 267.164 180.621 260.661C178.863 267.632 173.063 271.147 169.899 271.909V266.812C174.645 265.113 177.867 258.61 177.867 250.701V228.555H170.778ZM187.124 246.248V241.503H192.748V219.416H197.728V272.846H192.748V246.248H187.124ZM200.54 272.846V219.416H205.52V272.846H200.54ZM231.924 235.937V236.113H238.778V219.416H244.051V253.513H238.778V240.859H232.334C232.334 242.382 232.158 243.964 231.924 245.663C231.338 249.236 227.881 253.22 222.316 253.22C216.75 253.22 213.293 249.236 212.707 245.663C212.18 242.147 212.18 239.452 212.707 235.937C213.293 232.364 216.75 228.38 222.316 228.38C227.881 228.38 231.396 232.364 231.924 235.937ZM244.051 272.846H219.679C217.043 272.846 215.871 272.143 215.871 269.038V256.032H244.051V272.846ZM210.891 227.032V222.287H219.679V217.19H225.01V222.287H234.033V227.032H210.891ZM222.316 248.768C225.596 248.768 226.709 246.541 227.002 244.081C227.237 241.737 227.237 239.863 227.002 237.519C226.709 235.059 225.596 232.832 222.316 232.832C219.035 232.832 217.922 235.059 217.629 237.519C217.394 239.863 217.394 241.737 217.629 244.081C217.922 246.541 219.035 248.768 222.316 248.768ZM238.778 260.778H221.144V268.101H238.778V260.778ZM273.091 272.846V245.838H269.459C269.4 250.818 269.166 255.739 268.756 260.954C268.287 267.105 266.295 272.202 259.792 272.202C253.699 272.202 251.297 267.398 250.829 260.836C250.067 249.998 249.95 240.214 250.887 229.493C251.414 223.517 253.641 218.772 259.792 218.772C266.295 218.772 268.229 223.517 268.814 229.962C269.107 233.77 269.342 237.461 269.4 241.093H273.091V219.416H278.071V272.846H273.091ZM259.792 223.224C257.097 223.224 256.101 225.509 255.75 229.962C254.93 239.863 255.105 250.76 255.75 260.836C255.926 264.059 256.57 267.691 259.792 267.691C263.073 267.691 263.659 263.883 263.893 260.719C264.596 250.584 264.596 239.687 263.835 229.727C263.6 226.681 262.663 223.224 259.792 223.224ZM280.766 272.846V219.416H285.746V272.846H280.766ZM332.593 227.384C334.233 233.184 334.174 239.628 332.593 245.37C331.187 250.232 327.261 253.806 321.637 254.685V266.402H335.288V271.147H302.655V266.402H316.364V254.685C310.681 253.806 306.698 250.232 305.35 245.37C303.651 239.57 303.651 233.184 305.35 227.384C306.932 221.818 311.97 217.893 319.001 217.893C326.031 217.893 331.011 221.818 332.593 227.384ZM319.001 250.408C324.449 250.408 326.324 247.947 327.437 244.667C329.195 239.57 329.195 233.184 327.437 228.028C326.324 224.747 324.449 222.287 319.001 222.287C313.552 222.287 311.736 224.747 310.564 228.028C308.748 233.067 308.865 239.57 310.564 244.667C311.677 247.947 313.552 250.408 319.001 250.408ZM368.251 257.321V219.416H373.524V257.321H368.251ZM349.152 237.285V219.943H354.483V237.285C354.483 245.487 359.112 249.354 364.677 250.76V255.622C360.693 255.329 353.956 252.224 351.905 247.069C349.738 253.103 342.649 255.798 339.544 256.267V251.287C344.699 249.998 349.152 245.663 349.152 237.285ZM374.168 272.846H349.152C346.516 272.846 345.344 272.143 345.344 269.038V258.317H350.617V268.101H374.168V272.846ZM405.728 253.22V236.875H398.404V237.402C398.404 245.487 393.776 253.279 380.887 253.806V249.236C389.206 248.475 393.073 244.081 393.073 236.933V224.689H379.774V219.943H398.404V232.129H405.728V219.416H411V253.22H405.728ZM394.713 255.915V252.751H399.986V255.915C399.986 262.184 405.786 267.339 413.051 268.277V272.964C406.841 272.319 400.689 269.097 397.291 263.883C394.01 269.097 387.859 272.319 381.649 272.964V268.277C388.855 267.339 394.655 262.184 394.713 255.915ZM449.471 272.846H423.634C420.998 272.846 419.826 272.143 419.826 269.038V259.84H443.378V256.032H419.826V251.58H448.651V264.293H425.099V268.394H449.471V272.846ZM417.131 247.83V243.085H451.521V247.83H417.131ZM440.624 239.921C436.64 240.624 431.895 240.507 428.028 239.921C421.584 238.925 418.83 234.473 418.83 229.2C418.83 223.81 421.701 219.65 428.145 218.654C431.954 218.069 436.582 218.01 440.507 218.654C446.952 219.709 449.822 223.81 449.822 229.2C449.822 234.473 447.069 238.749 440.624 239.921ZM439.804 223.4C436.465 222.873 432.246 222.521 428.849 223.4C425.451 224.22 424.103 226.622 424.103 229.2C424.103 232.364 425.275 234.414 428.849 235.234C432.364 235.996 436.582 236.054 439.804 235.293C443.319 234.414 444.55 232.364 444.55 229.2C444.55 226.622 443.261 223.927 439.804 223.4ZM467.477 227.97V223.224H477.671V217.131H482.944V223.224H492.962V227.97H488.861C489.799 229.141 490.384 230.43 490.619 231.543C491.205 234.707 491.146 236.816 490.619 239.98C490.033 243.202 487.338 246.483 482.944 247.42V250.467H493.841V255.212H467.594V250.467H477.671V247.42C473.277 246.483 470.524 243.202 469.996 239.98C469.469 236.816 469.469 234.707 469.996 231.543C470.172 230.43 470.758 229.141 471.695 227.97H467.477ZM495.95 258.493V219.416H501.223V237.929H507.609V242.675H501.223V258.493H495.95ZM501.867 272.846H476.851C474.215 272.846 473.043 272.143 473.043 269.038V258.317H478.316V268.101H501.867V272.846ZM480.308 243.261C484.174 243.261 485.287 240.39 485.463 239.394C485.932 236.816 485.932 234.238 485.463 231.602C485.287 230.606 484.174 228.028 480.308 228.028C476.441 228.028 475.386 230.606 475.211 231.602C474.683 234.238 474.683 236.816 475.211 239.394C475.386 240.39 476.441 243.261 480.308 243.261ZM536.944 253.22V243.553H530.558V243.729C529.855 248.123 526.867 252.634 520.657 252.634C514.447 252.634 511.459 248.123 510.756 243.729C510.229 240.39 510.229 230.489 510.756 227.149C511.459 222.755 514.447 218.244 520.657 218.244C526.575 218.244 529.562 222.345 530.441 226.505H536.944V219.416H542.217V253.22H536.944ZM534.777 273.432C530.793 274.077 525.696 273.96 521.829 273.432C515.385 272.554 513.1 268.921 513.1 264.352C513.1 259.723 515.502 256.267 521.946 255.388C525.754 254.861 530.734 254.861 534.659 255.388C541.104 256.267 543.506 259.723 543.506 264.352C543.506 268.921 541.221 272.378 534.777 273.432ZM520.657 248.182C523.352 248.182 524.817 246.483 525.344 242.792C525.637 240.507 525.696 230.372 525.344 228.087C524.758 224.396 523.352 222.697 520.657 222.697C517.962 222.697 516.556 224.396 515.97 228.087C515.619 230.372 515.678 240.507 515.97 242.792C516.498 246.483 517.962 248.182 520.657 248.182ZM534.015 260.133C530.617 259.606 526.047 259.43 522.591 260.133C519.134 260.836 518.255 262.418 518.255 264.352C518.255 266.695 519.017 267.984 522.591 268.687C526.164 269.39 530.734 269.448 534.015 268.745C537.53 267.984 538.35 266.695 538.35 264.352C538.35 262.418 537.53 260.661 534.015 260.133ZM530.851 231.25C530.968 233.594 530.968 236.406 530.91 238.808H536.944V231.25H530.851ZM557.107 272.846C554.471 272.846 553.299 272.085 553.299 268.98V254.45H558.572V258.962H576.206V254.45H581.479V272.846H557.107ZM570.347 235.879C570.933 239.277 570.933 241.386 570.347 244.784C569.762 248.24 566.246 252.283 560.564 252.283C554.881 252.283 551.366 248.24 550.78 244.784C550.194 241.386 550.194 239.16 550.78 235.762C551.366 232.305 554.881 228.38 560.564 228.38C566.246 228.38 569.762 232.422 570.347 235.879ZM576.206 252.048V219.416H581.479V233.945H587.865V238.691H581.479V252.048H576.206ZM548.905 227.032V222.287H557.986V217.131H563.317V222.287H572.046V227.032H548.905ZM560.564 247.83C564.02 247.83 565.192 245.721 565.485 243.378C565.719 241.269 565.719 239.394 565.485 237.285C565.192 234.941 564.02 232.832 560.564 232.832C557.107 232.832 555.935 234.941 555.642 237.285C555.408 239.394 555.408 241.269 555.642 243.378C555.935 245.721 557.107 247.83 560.564 247.83ZM558.572 268.101H576.206V263.707H558.572V268.101ZM617.214 272.905V219.416H622.487V272.905H617.214ZM613.699 271.147H595.068C592.432 271.147 591.26 270.444 591.26 267.339V220.236H596.533V266.402H613.699V271.147ZM652.375 271.147H633.744C631.108 271.147 629.936 270.444 629.936 267.339V220.236H650.617V224.982H635.209V266.402H652.375V271.147ZM655.304 272.905V219.416H660.577V242.089H666.963V246.834H660.577V272.905H655.304Z" fill="#FF4D4D"/>
</svg>
