<svg width="577" height="167" viewBox="0 0 577 167" fill="none" xmlns="http://www.w3.org/2000/svg">
<g filter="url(#filter0_d_87_625)">
<path d="M21.1073 28.44C21.1073 20.88 28.2473 16.32 39.2273 16.32C50.1473 16.32 57.3473 20.88 57.3473 28.44C57.3473 36.06 50.0873 40.56 39.2273 40.56C28.2473 40.56 21.1073 36.06 21.1073 28.44ZM57.8873 38.1V27.78H64.2473V17.58H75.6473V58.68H64.2473V38.1H57.8873ZM24.4673 72.12V57.42H36.4673V63.42H75.9473V72.12H24.4673ZM20.5673 50.58V42.18H61.5473V50.58H43.0073V55.8H31.0073V50.58H20.5673ZM32.3273 28.44C32.3273 31.02 34.6673 33.06 39.2273 33.06C43.7873 33.06 46.1273 31.02 46.1273 28.44C46.1273 25.92 43.7873 23.88 39.2273 23.88C34.6673 23.88 32.3273 25.92 32.3273 28.44ZM96.3473 34.68C108.407 34.68 114.107 42.9 114.107 53.28C114.107 63.6 108.407 71.88 96.3473 71.88C84.1073 71.88 78.5273 63.72 78.5273 53.28C78.5273 42.9 84.2273 34.68 96.3473 34.68ZM130.247 17.58V38.76H135.947V48.66H130.247V72.72H118.847V17.58H130.247ZM78.0473 32.46V23.16H90.3473V16.38H102.347V23.16H114.767V32.46H78.0473ZM96.2873 43.62C90.8273 43.62 89.5673 48.84 89.5673 53.28C89.5673 57.78 90.8273 62.94 96.2873 62.94C101.687 62.94 103.067 57.84 103.067 53.34C103.067 48.84 101.807 43.62 96.2873 43.62ZM137.927 39.72V17.88H150.227V30.72H187.307V39.72H137.927ZM138.527 72.12V55.56H150.827V63.12H187.907V72.12H138.527ZM189.227 43.62V52.92H135.407V43.62H189.227ZM257.584 18.18V27.48H240.604C243.304 33.24 250.804 37.14 260.884 38.94L255.304 47.22C249.124 46.8 237.664 42.12 233.164 36.18C228.964 42.12 217.144 46.74 211.024 47.22L205.444 38.94C215.584 37.14 223.024 33.18 225.724 27.48H208.684V18.18H257.584ZM226.924 73.32V60.42H206.224V51.12H260.044V60.42H239.404V73.32H226.924ZM261.212 28.08V18.78H289.112V28.08H280.292V31.44C280.292 41.64 284.072 55.74 290.852 64.92L282.932 70.14C280.232 66.9 276.692 60.84 275.132 55.92C273.752 61.14 269.492 68.7 266.912 71.1L258.752 66.3C266.252 56.82 269.192 42.12 269.192 31.08V28.08H261.212ZM284.672 46.8V36.6H292.652V17.88H303.452V72.42H292.652V46.8H284.672ZM316.892 17.58V72.72H306.092V17.58H316.892ZM338.072 16.62C350.432 16.62 356.792 24.78 356.792 35.4C356.792 45.96 350.432 54.18 338.072 54.18C325.532 54.18 319.292 46.08 319.292 35.4C319.292 24.78 325.652 16.62 338.072 16.62ZM338.012 25.56C332.252 25.56 330.332 30.84 330.332 35.4C330.332 40.02 332.252 45.24 338.012 45.24C343.712 45.24 345.752 40.08 345.752 35.46C345.752 30.84 343.832 25.56 338.012 25.56ZM373.292 17.58V72.72H361.592V17.58H373.292ZM319.412 70.32V60.72H358.592V70.32H319.412ZM400.16 73.02V60.72H391.04V51.42H444.86V60.72H435.8V73.02H424.1V60.72H411.86V73.02H400.16ZM394.16 44.94V18.18H406.64V35.34H442.1V44.94H394.16ZM500.088 61.02V70.92H447.468V61.02H500.088ZM480.108 17.76V20.04C480.108 29.76 488.148 39.42 501.708 43.44L495.408 51.36C487.488 49.38 477.708 42.3 473.808 35.7C469.968 42.42 460.068 49.38 452.208 51.36L445.908 43.44C459.468 39.42 467.508 29.76 467.508 20.04V17.76H480.108ZM504.616 24.48V17.88H554.296V32.34H517.816V33.96H555.016V40.56H504.616V26.1H541.096V24.48H504.616ZM556.516 42.18V49.5H502.696V42.18H556.516ZM504.916 57.3V51H554.296V64.92H519.916V66.42H555.196V72.72H504.916V58.8H539.296V57.3H504.916ZM181.265 119.86V142.72H130.685V119.86H181.265ZM128.225 97.12V88.18H160.325C160.865 104.5 149.705 115.78 131.705 118.36L125.105 110.44C136.505 109 144.725 104.14 146.885 97.12H128.225ZM159.485 108.28V98.68H169.865V87.58H181.265V117.58H169.865V108.28H159.485ZM142.085 128.26V134.32H169.865V128.26H142.085ZM239.179 87.58V120.4H228.379V107.92H224.419V120.4H213.619V87.58H224.419V98.92H228.379V87.58H239.179ZM239.179 123.16V142.72H226.879V132.16H186.799V123.16H239.179ZM213.559 113.74L206.119 119.38C203.419 116.92 199.579 112.18 197.779 108.58C196.159 112.96 191.719 118.6 188.419 121.12L180.619 116.02C188.359 109.18 191.659 98.68 191.659 91.06V87.58H202.699V91.12C202.699 98.92 207.259 107.86 213.559 113.74ZM296.179 87.58V142.72H285.379V118.36H282.319V142.42H271.519V87.88H282.319V108.76H285.379V87.58H296.179ZM254.839 104.8C263.419 104.8 268.939 111.34 268.939 123.4C268.939 135.52 263.419 142.06 254.839 142.06C246.079 142.06 240.739 135.52 240.739 123.4C240.739 111.34 246.079 104.8 254.839 104.8ZM240.319 102.64V93.34H249.079V86.38H259.579V93.34H269.119V102.64H240.319ZM254.779 113.44C251.719 113.44 250.639 117.4 250.639 123.46C250.639 129.4 251.719 133.42 254.779 133.42C257.899 133.42 258.979 129.4 258.979 123.4C258.979 117.4 257.899 113.44 254.779 113.44ZM300.799 122.62V88.48H312.499V96.52H337.999V88.48H349.699V122.62H300.799ZM351.559 131.92V141.22H298.939V131.92H319.039V124.72H331.519V131.92H351.559ZM312.499 113.62H337.999V105.52H312.499V113.62ZM382.667 134.92L374.747 140.14C372.047 136.9 368.507 130.84 366.947 125.92C365.567 131.14 361.487 138.7 359.027 141.1L350.867 136.3C358.187 126.82 361.007 112.12 361.007 101.08V88.18H372.107V101.44C372.107 111.64 375.887 125.74 382.667 134.92ZM376.307 116.5V106.3H384.287V87.88H395.087V142.42H384.287V116.5H376.307ZM409.007 87.58V142.72H398.207V87.58H409.007ZM463.547 103.78C463.547 117.52 450.407 121.36 438.107 121.36C425.567 121.36 412.607 117.1 412.607 103.78C412.607 90.46 425.507 86.2 438.107 86.2C450.407 86.2 463.547 90.46 463.547 103.78ZM464.387 131.92V141.22H411.767V131.92H420.347V122.56H432.047V131.92H444.167V122.56H455.867V131.92H464.387ZM451.667 103.78C451.667 96.28 443.327 95.44 438.107 95.44C432.887 95.44 424.487 96.28 424.487 103.78C424.487 111.34 432.827 112.12 438.107 112.12C443.327 112.12 451.667 111.34 451.667 103.78Z" fill="#FF4D4D"/>
</g>
<defs>
<filter id="filter0_d_87_625" x="0.567383" y="0.319946" width="575.949" height="166.4" filterUnits="userSpaceOnUse" color-interpolation-filters="sRGB">
<feFlood flood-opacity="0" result="BackgroundImageFix"/>
<feColorMatrix in="SourceAlpha" type="matrix" values="0 0 0 0 0 0 0 0 0 0 0 0 0 0 0 0 0 0 127 0" result="hardAlpha"/>
<feOffset dy="4"/>
<feGaussianBlur stdDeviation="10"/>
<feComposite in2="hardAlpha" operator="out"/>
<feColorMatrix type="matrix" values="0 0 0 0 0 0 0 0 0 0 0 0 0 0 0 0 0 0 0.25 0"/>
<feBlend mode="normal" in2="BackgroundImageFix" result="effect1_dropShadow_87_625"/>
<feBlend mode="normal" in="SourceGraphic" in2="effect1_dropShadow_87_625" result="shape"/>
</filter>
</defs>
</svg>
