<svg width="577" height="167" viewBox="0 0 577 167" fill="none" xmlns="http://www.w3.org/2000/svg">
<g filter="url(#filter0_d_87_625)">
<path d="M21.1073 28.44C21.1073 20.88 28.2473 16.32 39.2273 16.32C50.1473 16.32 57.3473 20.88 57.3473 28.44C57.3473 36.06 50.0873 40.56 39.2273 40.56C28.2473 40.56 21.1073 36.06 21.1073 28.44ZM57.8873 38.1V27.78H64.2473V17.58H75.6473V58.68H64.2473V38.1H57.8873ZM24.4673 72.12V57.42H36.4673V63.42H75.9473V72.12H24.4673ZM20.5673 50.58V42.18H61.5473V50.58H43.0073V55.8H31.0073V50.58H20.5673ZM32.3273 28.44C32.3273 31.02 34.6673 33.06 39.2273 33.06C43.7873 33.06 46.1273 31.02 46.1273 28.44C46.1273 25.92 43.7873 23.88 39.2273 23.88C34.6673 23.88 32.3273 25.92 32.3273 28.44ZM96.3473 34.68C108.407 34.68 114.107 42.9 114.107 53.28C114.107 63.6 108.407 71.88 96.3473 71.88C84.1073 71.88 78.5273 63.72 78.5273 53.28C78.5273 42.9 84.2273 34.68 96.3473 34.68ZM130.247 17.58V38.76H135.947V48.66H130.247V72.72H118.847V17.58H130.247ZM78.0473 32.46V23.16H90.3473V16.38H102.347V23.16H114.767V32.46H78.0473ZM96.2873 43.62C90.8273 43.62 89.5673 48.84 89.5673 53.28C89.5673 57.78 90.8273 62.94 96.2873 62.94C101.687 62.94 103.067 57.84 103.067 53.34C103.067 48.84 101.807 43.62 96.2873 43.62ZM137.927 39.72V17.88H150.227V30.72H187.307V39.72H137.927ZM138.527 72.12V55.56H150.827V63.12H187.907V72.12H138.527ZM189.227 43.62V52.92H135.407V43.62H189.227ZM257.584 18.18V27.48H240.604C243.304 33.24 250.804 37.14 260.884 38.94L255.304 47.22C249.124 46.8 237.664 42.12 233.164 36.18C228.964 42.12 217.144 46.74 211.024 47.22L205.444 38.94C215.584 37.14 223.024 33.18 225.724 27.48H208.684V18.18H257.584ZM226.924 73.32V60.42H206.224V51.12H260.044V60.42H239.404V73.32H226.924ZM261.212 28.08V18.78H289.112V28.08H280.292V31.44C280.292 41.64 284.072 55.74 290.852 64.92L282.932 70.14C280.232 66.9 276.692 60.84 275.132 55.92C273.752 61.14 269.492 68.7 266.912 71.1L258.752 66.3C266.252 56.82 269.192 42.12 269.192 31.08V28.08H261.212ZM284.672 46.8V36.6H292.652V17.88H303.452V72.42H292.652V46.8H284.672ZM316.892 17.58V72.72H306.092V17.58H316.892ZM338.072 16.62C350.432 16.62 356.792 24.78 356.792 35.4C356.792 45.96 350.432 54.18 338.072 54.18C325.532 54.18 319.292 46.08 319.292 35.4C319.292 24.78 325.652 16.62 338.072 16.62ZM338.012 25.56C332.252 25.56 330.332 30.84 330.332 35.4C330.332 40.02 332.252 45.24 338.012 45.24C343.712 45.24 345.752 40.08 345.752 35.46C345.752 30.84 343.832 25.56 338.012 25.56ZM373.292 17.58V72.72H361.592V17.58H373.292ZM319.412 70.32V60.72H358.592V70.32H319.412ZM400.16 73.02V60.72H391.04V51.42H444.86V60.72H435.8V73.02H424.1V60.72H411.86V73.02H400.16ZM394.16 44.94V18.18H406.64V35.34H442.1V44.94H394.16ZM500.088 61.02V70.92H447.468V61.02H500.088ZM480.108 17.76V20.04C480.108 29.76 488.148 39.42 501.708 43.44L495.408 51.36C487.488 49.38 477.708 42.3 473.808 35.7C469.968 42.42 460.068 49.38 452.208 51.36L445.908 43.44C459.468 39.42 467.508 29.76 467.508 20.04V17.76H480.108ZM504.616 24.48V17.88H554.296V32.34H517.816V33.96H555.016V40.56H504.616V26.1H541.096V24.48H504.616ZM556.516 42.18V49.5H502.696V42.18H556.516ZM504.916 57.3V51H554.296V64.92H519.916V66.42H555.196V72.72H504.916V58.8H539.296V57.3H504.916ZM173.806 87.58V142.72H163.006V118.36H159.946V142.42H149.146V87.88H159.946V108.76H163.006V87.58H173.806ZM132.466 104.8C141.046 104.8 146.566 111.34 146.566 123.4C146.566 135.52 141.046 142.06 132.466 142.06C123.706 142.06 118.366 135.52 118.366 123.4C118.366 111.34 123.706 104.8 132.466 104.8ZM117.946 102.64V93.34H126.706V86.38H137.206V93.34H146.746V102.64H117.946ZM132.406 113.44C129.346 113.44 128.266 117.4 128.266 123.46C128.266 129.4 129.346 133.42 132.406 133.42C135.526 133.42 136.606 129.4 136.606 123.4C136.606 117.4 135.526 113.44 132.406 113.44ZM229.606 123.16V142.72H217.306V132.16H178.426V123.16H229.606ZM211.966 112.72L204.766 119.62C201.346 117.7 195.406 112.06 192.766 107.62C190.126 113.2 183.886 118.9 180.586 120.82L172.846 114.4C182.086 109.24 186.586 98.5 186.586 90.58V87.58H198.286V91.06C198.286 98.26 203.386 107.74 211.966 112.72ZM207.226 106.66V97.06H218.206V87.58H229.606V120.4H218.206V106.66H207.226ZM287.22 87.58V142.72H276.42V118.36H273.36V142.42H262.56V87.88H273.36V108.76H276.42V87.58H287.22ZM245.88 104.8C254.46 104.8 259.98 111.34 259.98 123.4C259.98 135.52 254.46 142.06 245.88 142.06C237.12 142.06 231.78 135.52 231.78 123.4C231.78 111.34 237.12 104.8 245.88 104.8ZM231.36 102.64V93.34H240.12V86.38H250.62V93.34H260.16V102.64H231.36ZM245.82 113.44C242.76 113.44 241.68 117.4 241.68 123.46C241.68 129.4 242.76 133.42 245.82 133.42C248.94 133.42 250.02 129.4 250.02 123.4C250.02 117.4 248.94 113.44 245.82 113.44ZM291.84 122.62V88.48H303.54V96.52H329.04V88.48H340.74V122.62H291.84ZM342.6 131.92V141.22H289.98V131.92H310.08V124.72H322.56V131.92H342.6ZM303.54 113.62H329.04V105.52H303.54V113.62ZM373.708 134.92L365.788 140.14C363.088 136.9 359.548 130.84 357.988 125.92C356.608 131.14 352.528 138.7 350.068 141.1L341.908 136.3C349.228 126.82 352.048 112.12 352.048 101.08V88.18H363.148V101.44C363.148 111.64 366.928 125.74 373.708 134.92ZM367.348 116.5V106.3H375.328V87.88H386.128V142.42H375.328V116.5H367.348ZM400.048 87.58V142.72H389.248V87.58H400.048ZM454.588 103.78C454.588 117.52 441.448 121.36 429.148 121.36C416.608 121.36 403.648 117.1 403.648 103.78C403.648 90.46 416.548 86.2 429.148 86.2C441.448 86.2 454.588 90.46 454.588 103.78ZM455.428 131.92V141.22H402.808V131.92H411.388V122.56H423.088V131.92H435.208V122.56H446.908V131.92H455.428ZM442.708 103.78C442.708 96.28 434.368 95.44 429.148 95.44C423.928 95.44 415.528 96.28 415.528 103.78C415.528 111.34 423.868 112.12 429.148 112.12C434.368 112.12 442.708 111.34 442.708 103.78ZM472.196 88.72L471.116 125.5H461.036L459.956 88.72H472.196ZM471.896 129.4V140.56H460.316V129.4H471.896Z" fill="#FF4D4D"/>
</g>
<defs>
<filter id="filter0_d_87_625" x="0.567383" y="0.319946" width="575.949" height="166.4" filterUnits="userSpaceOnUse" color-interpolation-filters="sRGB">
<feFlood flood-opacity="0" result="BackgroundImageFix"/>
<feColorMatrix in="SourceAlpha" type="matrix" values="0 0 0 0 0 0 0 0 0 0 0 0 0 0 0 0 0 0 127 0" result="hardAlpha"/>
<feOffset dy="4"/>
<feGaussianBlur stdDeviation="10"/>
<feComposite in2="hardAlpha" operator="out"/>
<feColorMatrix type="matrix" values="0 0 0 0 0 0 0 0 0 0 0 0 0 0 0 0 0 0 0.25 0"/>
<feBlend mode="normal" in2="BackgroundImageFix" result="effect1_dropShadow_87_625"/>
<feBlend mode="normal" in="SourceGraphic" in2="effect1_dropShadow_87_625" result="shape"/>
</filter>
</defs>
</svg>
